<?xml version="1.0" encoding="utf-8"?>
<!DOCTYPE svg PUBLIC "-//W3C//DTD SVG 1.1//EN" "http://www.w3.org/Graphics/SVG/1.1/DTD/svg11.dtd">
<svg version="1.1" id="Layer_1" xmlns="http://www.w3.org/2000/svg" xmlns:xlink="http://www.w3.org/1999/xlink" x="0px" y="0px"
	 width="64px" height="64px" viewBox="0 0 64 64" enable-background="new 0 0 64 64" xml:space="preserve">
<path fill="#A5A5A5" d="M32,0.2c9.1,0.2,16.6,3.3,22.6,9.3c6,6,9.1,13.6,9.3,22.6c-0.1,7.2-2.2,13.4-6.2,18.9s-9.2,9.2-15.7,11.5
	c-0.8,0.1-1.4,0-1.7-0.3c-0.3-0.4-0.5-0.8-0.5-1.2l0.1-8.8c0-1.5-0.2-2.7-0.7-3.7c-0.4-1-0.9-1.7-1.5-2.2c3.7-0.2,7-1.4,10-3.6
	c2.9-2.1,4.5-6.2,4.7-12.2c0-1.7-0.3-3.3-0.9-4.7s-1.4-2.7-2.4-3.8c0.2-0.4,0.5-1.4,0.6-2.9c0.2-1.5-0.1-3.4-0.9-5.6
	c0-0.1-0.7-0.1-2.1,0.1c-1.4,0.2-3.6,1.3-6.7,3.2c-2.6-0.7-5.2-1.1-8-1.1s-5.4,0.4-8,1.1c-3-2-5.3-3-6.7-3.2
	c-1.4-0.2-2.1-0.2-2.1-0.1c-0.8,2.2-1.1,4.1-0.9,5.6c0.2,1.5,0.4,2.5,0.6,2.9c-1,1.1-1.9,2.3-2.4,3.8c-0.6,1.4-0.9,3-0.9,4.8
	c0.2,6,1.7,10,4.6,12.2c2.9,2.2,6.2,3.4,9.9,3.6c-0.5,0.4-0.9,0.9-1.2,1.6c-0.4,0.7-0.6,1.6-0.8,2.6c-1.1,0.6-2.5,0.8-4.4,0.7
	s-3.5-1.2-4.9-3.4c-0.7-1.1-1.4-1.9-2.3-2.4c-0.9-0.5-1.7-0.8-2.7-0.9c-0.8-0.1-1.3,0-1.5,0.4c-0.2,0.3,0.2,0.8,1.2,1.5
	c1,0.7,1.8,1.4,2.3,2.2c0.5,0.8,0.9,1.7,1.3,2.5c0.5,1.3,1.6,2.4,3.4,3.3c1.7,0.9,4.2,1,7.4,0.4l0.1,5.9c0,0.5-0.2,0.9-0.5,1.2
	c-0.3,0.4-0.9,0.5-1.7,0.3c-6.5-2.2-11.7-6.1-15.7-11.5S0.1,39.1,0,32c0.2-9.1,3.3-16.6,9.3-22.6c6-6,13.6-9.1,22.6-9.3L32,0.2z"/>
</svg>
