<?xml version="1.0" encoding="utf-8"?>
<!DOCTYPE svg PUBLIC "-//W3C//DTD SVG 1.1//EN" "http://www.w3.org/Graphics/SVG/1.1/DTD/svg11.dtd">
<svg version="1.1" xmlns="http://www.w3.org/2000/svg" xmlns:xlink="http://www.w3.org/1999/xlink" x="0px" y="0px"
	 width="64px" height="64px" viewBox="0 0 64 64" enable-background="new 0 0 64 64" xml:space="preserve">
<path fill="#A5A5A5" d="M57.4,18.8c0,0.6,0,1.1,0,1.7c0,17.5-13.2,37.7-37.4,37.7c-7.4,0-14.3-2.2-20.1-6c1,0.1,2.1,0.2,3.1,0.2
	c6.2,0,11.8-2.1,16.3-5.7c-5.7-0.1-10.6-3.9-12.3-9.2c0.8,0.2,1.6,0.2,2.5,0.2c1.2,0,2.4-0.2,3.5-0.5c-6-1.2-10.5-6.6-10.5-13v-0.2
	c1.8,1,3.8,1.6,5.9,1.7c-3.5-2.4-5.8-6.4-5.8-11c0-2.4,0.6-4.7,1.8-6.7c6.5,8,16.2,13.3,27.1,13.9c-0.2-1-0.3-2-0.3-3
	c0-7.3,5.9-13.3,13.1-13.3c3.8,0,7.2,1.6,9.6,4.2c3-0.6,5.8-1.7,8.3-3.2c-1,3.1-3.1,5.7-5.8,7.3c2.7-0.3,5.2-1,7.5-2.1
	C62.2,14.6,60,16.9,57.4,18.8L57.4,18.8z"/>
</svg>
