<?xml version="1.0" encoding="utf-8"?>
<!-- Generator: Adobe Illustrator 18.1.1, SVG Export Plug-In . SVG Version: 6.00 Build 0)  -->
<!DOCTYPE svg PUBLIC "-//W3C//DTD SVG 1.1//EN" "http://www.w3.org/Graphics/SVG/1.1/DTD/svg11.dtd">
<svg version="1.1" id="Layer_1" xmlns="http://www.w3.org/2000/svg" xmlns:xlink="http://www.w3.org/1999/xlink" x="0px" y="0px"
	 width="64px" height="64px" viewBox="0 0 64 64" enable-background="new 0 0 64 64" xml:space="preserve">
<path fill="#A5A5A5" d="M57.5,0c0.8,0,1.4,0.1,1.6,0.4s0.4,0.6,0.2,0.8l-0.2,0.4L39.4,32H14.7c-1.8,0-3.4,0.7-4.7,2
	c-1.3,1.3-2,2.9-2,4.7c0,1.6,0.5,3,1.5,4.3c1,1.2,2.3,2,3.8,2.3v8.1c-3.8-0.3-6.9-1.9-9.5-4.7C1.3,45.8,0,42.5,0,38.7v-0.1v-0.1
	v-0.1c0-1.9,0.2-3.6,0.5-5.1c0.3-1.5,0.7-2.5,1-3.1L2,29.3L23.4,0H57.5z M36.8,37.3h0.5c-0.8,0-1.4,0.2-1.8,0.7
	c-0.4,0.4-0.7,0.9-0.7,1.4L34.7,40v24l-8-6.7l-8,6.7V40c0-0.1,0-0.2,0-0.3c0-0.1,0.1-0.3,0.2-0.6c0.1-0.3,0.2-0.6,0.4-0.8
	c0.1-0.2,0.4-0.4,0.8-0.6s0.8-0.3,1.3-0.3H36.8z M62.1,24c0.8,0,1.4,0.2,1.6,0.4c0.3,0.3,0.4,0.6,0.2,0.8l-0.2,0.4L46.1,53.3H40v-8
	h2.7L56,24H62.1z"/>
</svg>
