<?xml version="1.0" encoding="utf-8"?>
<!DOCTYPE svg PUBLIC "-//W3C//DTD SVG 1.1//EN" "http://www.w3.org/Graphics/SVG/1.1/DTD/svg11.dtd">
<svg version="1.1" xmlns="http://www.w3.org/2000/svg" xmlns:xlink="http://www.w3.org/1999/xlink" x="0px" y="0px" width="64px"
	 height="64px" viewBox="0 0 64 64" enable-background="new 0 0 64 64" xml:space="preserve">
				<radialGradient id="SVGID_1_" cx="-103.1838" cy="354.6348" r="20.1906" gradientTransform="matrix(1.8944 0 0 -1.8944 221.5236 693.483)" gradientUnits="userSpaceOnUse">
				<stop  offset="0" style="stop-color:#0E0E17;stop-opacity:0.85"/>
				<stop  offset="0.7669" style="stop-color:#0E0E17"/>
			</radialGradient>
			<rect x="2.7" y="2.7" fill="url(#SVGID_1_)" width="58.7" height="57.1"/>
			<path fill="#31C5F0" d="M0,0v62.4h64V0H0z M2.7,2.7h58.7v57.1H2.7V2.7z"/>
		<path fill="#31C5F0" d="M15.5,14.6c0-0.2,0.4-0.3,0.6-0.3c1.7-0.1,4.2-0.1,6.9-0.1c7.4,0,10.3,4,10.3,9.2c0,6.8-4.9,9.7-10.9,9.7
			c-1,0-1.4,0-2.1,0v10.2c0,0.2-0.1,0.3-0.3,0.3h-4.1c-0.2,0-0.3-0.1-0.3-0.3V14.6z M20.2,28.8c0.6,0,1.1,0,2.2,0
			c3.1,0,6.1-1.1,6.1-5.3c0-3.4-2.1-5.1-5.7-5.1c-1.1,0-2.1,0-2.6,0.1L20.2,28.8L20.2,28.8z M43.2,25.6c-2.1,0-2.8,1.1-2.8,1.9
			c0,1,0.5,1.6,3.3,3.1c4.2,2,5.5,4,5.5,6.8c0,4.3-3.3,6.6-7.7,6.6c-2.3,0-4.3-0.5-5.5-1.1c-0.2-0.1-0.2-0.2-0.2-0.4v-3.9
			c0-0.3,0.1-0.4,0.3-0.2c1.7,1.1,3.6,1.6,5.4,1.6c2.1,0,3-0.9,3-2.1c0-1-0.6-1.8-3.3-3.2c-3.8-1.8-5.4-3.7-5.4-6.7
			c0-3.4,2.7-6.3,7.3-6.3c2.3,0,3.9,0.4,4.8,0.7c0.2,0.1,0.3,0.4,0.3,0.5v3.7c0,0.2-0.1,0.4-0.4,0.3C46.6,26.1,44.9,25.6,43.2,25.6z
			"/></svg>
