<?xml version="1.0" encoding="utf-8"?>
<!DOCTYPE svg PUBLIC "-//W3C//DTD SVG 1.1//EN" "http://www.w3.org/Graphics/SVG/1.1/DTD/svg11.dtd">
<svg version="1.1" id="Layer_1" xmlns="http://www.w3.org/2000/svg" xmlns:xlink="http://www.w3.org/1999/xlink" x="0px" y="0px"
	 width="72px" height="24px" viewBox="0 0 72 24" enable-background="new 0 0 72 24" xml:space="preserve">
<path fill="#C0C0C0" d="M12.1,5h7.1v16L12.1,5z M7.1,5H0v16L7.1,5z M9.6,10.9L14.1,21h-3l-1.3-3.2H6.5L9.6,10.9z M29,14.8l-1.2,3.3
	c0,0.1-0.1,0.1-0.1,0.1h-1.1c-0.1,0-0.1-0.1-0.1-0.1c1-2.5,2.6-6.9,3.7-9.7c0.1-0.1,0.1-0.3,0.1-0.7c0-0.1,0-0.1,0.1-0.1H32
	c0.1,0,0.1,0,0.1,0.1c1.3,3.4,2.6,7,3.9,10.4c0,0.1,0,0.1-0.1,0.1h-1.3c-0.1,0-0.1,0-0.1-0.1l-1.3-3.4C33.2,14.7,29,14.8,29,14.8z
	 M32.8,13.6c-0.4-1-1.3-3.8-1.7-4.9c-0.3,1-1.1,3.1-1.6,4.9H32.8z M36.7,14.4c0-2.4,1.8-4.1,4.4-4.1c0.5,0,0.9,0,1.3,0.2V6.8
	c0-0.1,0-0.1,0.1-0.1h1.3c0.1,0,0.1,0,0.1,0.1v10.7c0,0.1,0,0.1-0.1,0.2c-1,0.5-2,0.8-3,0.8C38.4,18.4,36.7,17,36.7,14.4z
	 M42.4,11.6c-0.3-0.2-0.8-0.2-1.3-0.2c-1.8,0-2.9,1.2-2.9,2.9c0,2.2,1.3,2.9,2.7,2.9c0.6,0,1.1-0.1,1.4-0.2
	C42.3,17,42.4,11.6,42.4,11.6z M53.1,14.3c0,2.4-1.5,4-3.9,4c-2.8,0-3.9-2.1-3.9-4c0-2.4,1.5-4,3.9-4C51.8,10.3,53.1,12,53.1,14.3z
	 M46.9,14.3c0,1.7,0.9,3,2.5,3c1.2,0,2.3-0.8,2.3-2.9c0-1.6-0.7-3-2.4-3C47.9,11.3,46.9,12.4,46.9,14.3z M56.1,6.7
	C56.2,6.7,56.2,6.7,56.1,6.7l0.1,4c0.7-0.3,1.3-0.5,2-0.5c2.2,0,3.6,1.6,3.6,3.7c0,2.8-2.2,4.4-4.6,4.4c-0.9,0-1.5-0.1-2.3-0.4
	c-0.1,0-0.1-0.1-0.1-0.2v-11c0-0.1,0-0.1,0.1-0.1L56.1,6.7C56.1,6.6,56.1,6.7,56.1,6.7z M57.9,11.4c-0.7,0-1.3,0.1-1.7,0.4v5.3
	c0.4,0.1,0.8,0.1,1.2,0.1c1.4,0,3-1,3-3.2C60.4,12.4,59.5,11.4,57.9,11.4z M64.6,14.4c0,1.6,0.9,2.7,2.7,2.7c0.7,0,1.3-0.1,2-0.5
	c0.1,0,0.1,0,0.1,0.1v0.9c0,0.1,0,0.1-0.1,0.2c-0.6,0.3-1.3,0.5-2.3,0.5c-2.9,0-3.9-2-3.9-4c0-2.4,1.3-4,3.7-4
	c2.3,0,3.2,1.8,3.2,3.1c0,0.7-0.1,0.8-0.1,0.9c-0.3,0.1-0.9,0.1-1.7,0.1C68.2,14.4,64.6,14.4,64.6,14.4z M67.6,13.6
	c0.8,0,1-0.1,1-0.1v-0.3c0-0.6-0.4-1.9-1.9-1.9c-1.3,0-2,1-2.1,2.3C64.6,13.6,67.6,13.6,67.6,13.6z"/>
</svg>
